<svg xmlns:xlink="http://www.w3.org/1999/xlink" xmlns="http://www.w3.org/2000/svg" version="1.1" viewBox="408.82 103.97 658.38 176.08">
 <metadata>
  <rdf:RDF xmlns:dc="http://purl.org/dc/elements/1.1/" xmlns:cc="http://creativecommons.org/ns#" xmlns:rdf="http://www.w3.org/1999/02/22-rdf-syntax-ns#">
   <cc:Work>
    <dc:type rdf:resource="http://purl.org/dc/dcmitype/StillImage"/>
    <dc:date>2025-09-17T15:01:21.453836</dc:date>
    <dc:format>image/svg+xml</dc:format>
    <dc:creator>
     <cc:Agent>
      <dc:title>Matplotlib v3.8.2, https://matplotlib.org/</dc:title>
     </cc:Agent>
    </dc:creator>
   </cc:Work>
  </rdf:RDF>
 </metadata>
 <defs>
  <style type="text/css">*{stroke-linejoin: round; stroke-linecap: butt}</style>
 </defs>
 <g id="figure_1">
  <g id="patch_1">
   <path d="M 0 504  L 1440 504  L 1440 0  L 0 0  L 0 504  z " style="fill: none"/>
  </g>
  <g id="axes_1">
   <g id="patch_2">
    <path d="M 1017 254.52  C 1296 60.48 180 60.48 459 254.52  " clip-path="url(#p748ec2bc34)" style="fill: none; stroke: #00597d; stroke-width: 2; stroke-linejoin: miter"/>
   </g>
   <g id="text_1">
    <!-- import dfbmodels -->
    <g style="fill: #8b0000" transform="translate(497.1875 269.645) scale(0.5 -0.5)">
     <defs>
      <path id="DejaVuSansMono-Bold-69" d="M 691 3500  L 2503 3500  L 2503 703  L 3641 703  L 3641 0  L 447 0  L 447 703  L 1588 703  L 1588 2797  L 691 2797  L 691 3500  z M 1588 5203  L 2503 5203  L 2503 4134  L 1588 4134  L 1588 5203  z " transform="scale(0.015625)"/>
      <path id="DejaVuSansMono-Bold-6d" d="M 2156 3150  Q 2259 3372 2418 3478  Q 2578 3584 2809 3584  Q 3263 3584 3436 3271  Q 3609 2959 3609 1972  L 3609 0  L 2859 0  L 2859 2247  Q 2859 2638 2800 2769  Q 2741 2900 2584 2900  Q 2428 2900 2365 2765  Q 2303 2631 2303 2247  L 2303 0  L 1563 0  L 1563 2247  Q 1563 2631 1500 2765  Q 1438 2900 1281 2900  Q 1125 2900 1065 2769  Q 1006 2638 1006 2247  L 1006 0  L 256 0  L 256 3500  L 922 3500  L 922 3138  Q 1000 3344 1172 3464  Q 1344 3584 1556 3584  Q 1769 3584 1944 3457  Q 2119 3331 2156 3150  z " transform="scale(0.015625)"/>
      <path id="DejaVuSansMono-Bold-70" d="M 1381 494  L 1381 -1331  L 469 -1331  L 469 3500  L 1381 3500  L 1381 2975  Q 1525 3278 1759 3431  Q 1994 3584 2309 3584  Q 2909 3584 3240 3103  Q 3572 2622 3572 1747  Q 3572 859 3236 384  Q 2900 -91 2278 -91  Q 1997 -91 1773 54  Q 1550 200 1381 494  z M 2656 1753  Q 2656 2259 2487 2546  Q 2319 2834 2022 2834  Q 1725 2834 1553 2546  Q 1381 2259 1381 1753  Q 1381 1247 1553 959  Q 1725 672 2022 672  Q 2319 672 2487 959  Q 2656 1247 2656 1753  z " transform="scale(0.015625)"/>
      <path id="DejaVuSansMono-Bold-6f" d="M 1925 2841  Q 1597 2841 1409 2552  Q 1222 2263 1222 1747  Q 1222 1231 1409 942  Q 1597 653 1925 653  Q 2256 653 2443 942  Q 2631 1231 2631 1747  Q 2631 2263 2443 2552  Q 2256 2841 1925 2841  z M 306 1747  Q 306 2594 745 3089  Q 1184 3584 1925 3584  Q 2669 3584 3108 3089  Q 3547 2594 3547 1747  Q 3547 900 3108 404  Q 2669 -91 1925 -91  Q 1184 -91 745 404  Q 306 900 306 1747  z " transform="scale(0.015625)"/>
      <path id="DejaVuSansMono-Bold-72" d="M 3597 2534  Q 3447 2672 3245 2740  Q 3044 2809 2803 2809  Q 2513 2809 2295 2707  Q 2078 2606 1959 2413  Q 1884 2294 1854 2125  Q 1825 1956 1825 1613  L 1825 0  L 909 0  L 909 3500  L 1825 3500  L 1825 2956  Q 1959 3256 2237 3420  Q 2516 3584 2888 3584  Q 3075 3584 3254 3539  Q 3434 3494 3597 3406  L 3597 2534  z " transform="scale(0.015625)"/>
      <path id="DejaVuSansMono-Bold-74" d="M 2156 4494  L 2156 3500  L 3353 3500  L 3353 2797  L 2156 2797  L 2156 1141  Q 2156 906 2270 804  Q 2384 703 2650 703  L 3353 703  L 3353 0  L 2584 0  Q 1797 0 1519 251  Q 1241 503 1241 1184  L 1241 2797  L 347 2797  L 347 3500  L 1241 3500  L 1241 4494  L 2156 4494  z " transform="scale(0.015625)"/>
      <path id="DejaVuSansMono-Bold-20" transform="scale(0.015625)"/>
      <path id="DejaVuSansMono-Bold-64" d="M 2472 3003  L 2472 4863  L 3384 4863  L 3384 0  L 2472 0  L 2472 519  Q 2325 216 2092 62  Q 1859 -91 1544 -91  Q 944 -91 612 390  Q 281 872 281 1747  Q 281 2634 617 3109  Q 953 3584 1575 3584  Q 1856 3584 2079 3439  Q 2303 3294 2472 3003  z M 1197 1741  Q 1197 1234 1365 946  Q 1534 659 1831 659  Q 2128 659 2300 946  Q 2472 1234 2472 1741  Q 2472 2247 2300 2534  Q 2128 2822 1831 2822  Q 1534 2822 1365 2534  Q 1197 2247 1197 1741  z " transform="scale(0.015625)"/>
      <path id="DejaVuSansMono-Bold-66" d="M 2309 3806  L 2309 3500  L 3384 3500  L 3384 2797  L 2309 2797  L 2309 0  L 1394 0  L 1394 2797  L 544 2797  L 544 3500  L 1394 3500  L 1394 3744  Q 1394 4375 1656 4619  Q 1919 4863 2631 4863  L 3384 4863  L 3384 4159  L 2669 4159  Q 2463 4159 2389 4084  Q 2316 4009 2309 3806  z " transform="scale(0.015625)"/>
      <path id="DejaVuSansMono-Bold-62" d="M 2656 1741  Q 2656 2247 2487 2534  Q 2319 2822 2022 2822  Q 1725 2822 1553 2534  Q 1381 2247 1381 1741  Q 1381 1234 1553 946  Q 1725 659 2022 659  Q 2319 659 2487 946  Q 2656 1234 2656 1741  z M 1381 3003  Q 1550 3294 1773 3439  Q 1997 3584 2278 3584  Q 2900 3584 3236 3109  Q 3572 2634 3572 1747  Q 3572 872 3240 390  Q 2909 -91 2309 -91  Q 1994 -91 1759 62  Q 1525 216 1381 519  L 1381 0  L 469 0  L 469 4863  L 1381 4863  L 1381 3003  z " transform="scale(0.015625)"/>
      <path id="DejaVuSansMono-Bold-65" d="M 3444 172  Q 3125 41 2794 -25  Q 2463 -91 2094 -91  Q 1216 -91 752 379  Q 288 850 288 1734  Q 288 2591 734 3087  Q 1181 3584 1953 3584  Q 2731 3584 3161 3123  Q 3591 2663 3591 1825  L 3591 1453  L 1219 1453  Q 1222 1041 1462 837  Q 1703 634 2181 634  Q 2497 634 2803 725  Q 3109 816 3444 1013  L 3444 172  z M 2669 2141  Q 2663 2503 2483 2689  Q 2303 2875 1953 2875  Q 1638 2875 1450 2683  Q 1263 2491 1228 2138  L 2669 2141  z " transform="scale(0.015625)"/>
      <path id="DejaVuSansMono-Bold-6c" d="M 1209 1459  L 1209 4159  L 281 4159  L 281 4863  L 2125 4863  L 2125 1459  Q 2125 1047 2253 875  Q 2381 703 2688 703  L 3419 703  L 3419 0  L 2431 0  Q 1778 0 1493 337  Q 1209 675 1209 1459  z " transform="scale(0.015625)"/>
      <path id="DejaVuSansMono-Bold-73" d="M 3097 3391  L 3097 2591  Q 2844 2753 2570 2836  Q 2297 2919 2022 2919  Q 1716 2919 1559 2830  Q 1403 2741 1403 2566  Q 1403 2316 2072 2159  L 2106 2150  L 2369 2088  Q 2869 1969 3101 1705  Q 3334 1441 3334 991  Q 3334 450 2979 179  Q 2625 -91 1913 -91  Q 1597 -91 1265 -36  Q 934 19 594 128  L 594 928  Q 897 756 1211 665  Q 1525 575 1819 575  Q 2141 575 2306 669  Q 2472 763 2472 941  Q 2472 1116 2355 1209  Q 2238 1303 1797 1409  L 1544 1466  Q 1019 1584 778 1837  Q 538 2091 538 2516  Q 538 3022 903 3303  Q 1269 3584 1931 3584  Q 2228 3584 2523 3536  Q 2819 3488 3097 3391  z " transform="scale(0.015625)"/>
     </defs>
     <use xlink:href="#DejaVuSansMono-Bold-69"/>
     <use xlink:href="#DejaVuSansMono-Bold-6d" x="60.205078"/>
     <use xlink:href="#DejaVuSansMono-Bold-70" x="120.410156"/>
     <use xlink:href="#DejaVuSansMono-Bold-6f" x="180.615234"/>
     <use xlink:href="#DejaVuSansMono-Bold-72" x="240.820312"/>
     <use xlink:href="#DejaVuSansMono-Bold-74" x="301.025391"/>
     <use xlink:href="#DejaVuSansMono-Bold-20" x="361.230469"/>
     <use xlink:href="#DejaVuSansMono-Bold-64" x="421.435547"/>
     <use xlink:href="#DejaVuSansMono-Bold-66" x="481.640625"/>
     <use xlink:href="#DejaVuSansMono-Bold-62" x="541.845703"/>
     <use xlink:href="#DejaVuSansMono-Bold-6d" x="602.050781"/>
     <use xlink:href="#DejaVuSansMono-Bold-6f" x="662.255859"/>
     <use xlink:href="#DejaVuSansMono-Bold-64" x="722.460938"/>
     <use xlink:href="#DejaVuSansMono-Bold-65" x="782.666016"/>
     <use xlink:href="#DejaVuSansMono-Bold-6c" x="842.871094"/>
     <use xlink:href="#DejaVuSansMono-Bold-73" x="903.076172"/>
    </g>
   </g>
   <g id="text_2">
    <!-- import -->
    <g style="fill: #00597d" transform="translate(492.48 267.7046) scale(0.5 -0.5)">
     <use xlink:href="#DejaVuSansMono-Bold-69"/>
     <use xlink:href="#DejaVuSansMono-Bold-6d" x="60.205078"/>
     <use xlink:href="#DejaVuSansMono-Bold-70" x="120.410156"/>
     <use xlink:href="#DejaVuSansMono-Bold-6f" x="180.615234"/>
     <use xlink:href="#DejaVuSansMono-Bold-72" x="240.820312"/>
     <use xlink:href="#DejaVuSansMono-Bold-74" x="301.025391"/>
    </g>
   </g>
   <g id="text_3">
    <!-- dfbmodels -->
    <g style="fill: #ffffff" transform="translate(703.404 266.376475) scale(0.5 -0.5)">
     <use xlink:href="#DejaVuSansMono-Bold-64"/>
     <use xlink:href="#DejaVuSansMono-Bold-66" x="60.205078"/>
     <use xlink:href="#DejaVuSansMono-Bold-62" x="120.410156"/>
     <use xlink:href="#DejaVuSansMono-Bold-6d" x="180.615234"/>
     <use xlink:href="#DejaVuSansMono-Bold-6f" x="240.820312"/>
     <use xlink:href="#DejaVuSansMono-Bold-64" x="301.025391"/>
     <use xlink:href="#DejaVuSansMono-Bold-65" x="361.230469"/>
     <use xlink:href="#DejaVuSansMono-Bold-6c" x="421.435547"/>
     <use xlink:href="#DejaVuSansMono-Bold-73" x="481.640625"/>
    </g>
   </g>
   <g id="text_4">
    <!-- Deep Feedback Models -->
    <g style="fill: #a0c519" transform="translate(619.826563 182.42275) scale(0.2 -0.2)">
     <defs>
      <path id="DejaVuSerif-44" d="M 1581 331  L 2163 331  Q 3072 331 3558 850  Q 4044 1369 4044 2338  Q 4044 3306 3559 3818  Q 3075 4331 2163 4331  L 1581 4331  L 1581 331  z M 353 0  L 353 331  L 947 331  L 947 4331  L 353 4331  L 353 4666  L 2209 4666  Q 3416 4666 4089 4050  Q 4763 3434 4763 2338  Q 4763 1238 4088 619  Q 3413 0 2209 0  L 353 0  z " transform="scale(0.015625)"/>
      <path id="DejaVuSerif-65" d="M 3469 1600  L 991 1600  L 991 1575  Q 991 903 1244 561  Q 1497 219 1991 219  Q 2369 219 2611 417  Q 2853 616 2950 1006  L 3413 1006  Q 3275 459 2904 184  Q 2534 -91 1931 -91  Q 1203 -91 761 389  Q 319 869 319 1663  Q 319 2450 753 2931  Q 1188 3413 1894 3413  Q 2647 3413 3050 2948  Q 3453 2484 3469 1600  z M 2791 1931  Q 2772 2513 2545 2808  Q 2319 3103 1894 3103  Q 1497 3103 1269 2806  Q 1041 2509 991 1931  L 2791 1931  z " transform="scale(0.015625)"/>
      <path id="DejaVuSerif-70" d="M 1313 1825  L 1313 1497  Q 1313 897 1542 583  Q 1772 269 2209 269  Q 2650 269 2876 622  Q 3103 975 3103 1663  Q 3103 2353 2876 2703  Q 2650 3053 2209 3053  Q 1772 3053 1542 2737  Q 1313 2422 1313 1825  z M 738 2988  L 184 2988  L 184 3322  L 1313 3322  L 1313 2803  Q 1481 3116 1742 3264  Q 2003 3413 2388 3413  Q 3000 3413 3387 2928  Q 3775 2444 3775 1663  Q 3775 881 3387 395  Q 3000 -91 2388 -91  Q 2003 -91 1742 57  Q 1481 206 1313 519  L 1313 -997  L 1856 -997  L 1856 -1331  L 184 -1331  L 184 -997  L 738 -997  L 738 2988  z " transform="scale(0.015625)"/>
      <path id="DejaVuSerif-20" transform="scale(0.015625)"/>
      <path id="DejaVuSerif-46" d="M 353 0  L 353 331  L 947 331  L 947 4331  L 353 4331  L 353 4666  L 4172 4666  L 4172 3628  L 3788 3628  L 3788 4281  L 1581 4281  L 1581 2719  L 3175 2719  L 3175 3303  L 3559 3303  L 3559 1753  L 3175 1753  L 3175 2338  L 1581 2338  L 1581 331  L 2328 331  L 2328 0  L 353 0  z " transform="scale(0.015625)"/>
      <path id="DejaVuSerif-64" d="M 3359 331  L 3909 331  L 3909 0  L 2784 0  L 2784 519  Q 2616 206 2355 57  Q 2094 -91 1709 -91  Q 1097 -91 708 395  Q 319 881 319 1663  Q 319 2444 706 2928  Q 1094 3413 1709 3413  Q 2094 3413 2355 3264  Q 2616 3116 2784 2803  L 2784 4531  L 2241 4531  L 2241 4863  L 3359 4863  L 3359 331  z M 2784 1497  L 2784 1825  Q 2784 2422 2554 2737  Q 2325 3053 1888 3053  Q 1444 3053 1217 2703  Q 991 2353 991 1663  Q 991 975 1217 622  Q 1444 269 1888 269  Q 2325 269 2554 583  Q 2784 897 2784 1497  z " transform="scale(0.015625)"/>
      <path id="DejaVuSerif-62" d="M 738 331  L 738 4531  L 184 4531  L 184 4863  L 1313 4863  L 1313 2803  Q 1481 3116 1742 3264  Q 2003 3413 2388 3413  Q 3000 3413 3387 2928  Q 3775 2444 3775 1663  Q 3775 881 3387 395  Q 3000 -91 2388 -91  Q 2003 -91 1742 57  Q 1481 206 1313 519  L 1313 0  L 184 0  L 184 331  L 738 331  z M 1313 1497  Q 1313 897 1542 583  Q 1772 269 2209 269  Q 2650 269 2876 622  Q 3103 975 3103 1663  Q 3103 2353 2876 2703  Q 2650 3053 2209 3053  Q 1772 3053 1542 2737  Q 1313 2422 1313 1825  L 1313 1497  z " transform="scale(0.015625)"/>
      <path id="DejaVuSerif-61" d="M 2547 1044  L 2547 1747  L 1806 1747  Q 1378 1747 1168 1562  Q 959 1378 959 997  Q 959 650 1171 447  Q 1384 244 1747 244  Q 2106 244 2326 466  Q 2547 688 2547 1044  z M 3122 2075  L 3122 331  L 3634 331  L 3634 0  L 2547 0  L 2547 359  Q 2356 128 2106 18  Q 1856 -91 1522 -91  Q 969 -91 644 203  Q 319 497 319 997  Q 319 1513 691 1797  Q 1063 2081 1741 2081  L 2547 2081  L 2547 2309  Q 2547 2688 2317 2895  Q 2088 3103 1672 3103  Q 1328 3103 1125 2947  Q 922 2791 872 2484  L 575 2484  L 575 3156  Q 875 3284 1158 3348  Q 1441 3413 1709 3413  Q 2400 3413 2761 3070  Q 3122 2728 3122 2075  z " transform="scale(0.015625)"/>
      <path id="DejaVuSerif-63" d="M 3291 997  Q 3169 466 2822 187  Q 2475 -91 1925 -91  Q 1200 -91 759 389  Q 319 869 319 1663  Q 319 2459 759 2936  Q 1200 3413 1925 3413  Q 2241 3413 2553 3339  Q 2866 3266 3181 3116  L 3181 2266  L 2847 2266  Q 2781 2703 2561 2903  Q 2341 3103 1931 3103  Q 1466 3103 1228 2742  Q 991 2381 991 1663  Q 991 944 1227 581  Q 1463 219 1931 219  Q 2303 219 2525 412  Q 2747 606 2828 997  L 3291 997  z " transform="scale(0.015625)"/>
      <path id="DejaVuSerif-6b" d="M 1831 0  L 219 0  L 219 331  L 738 331  L 738 4531  L 184 4531  L 184 4863  L 1313 4863  L 1313 1697  L 2713 2988  L 2234 2988  L 2234 3322  L 3738 3322  L 3738 2988  L 3169 2988  L 2181 2075  L 3444 331  L 3922 331  L 3922 0  L 2284 0  L 2284 331  L 2759 331  L 1766 1697  L 1313 1275  L 1313 331  L 1831 331  L 1831 0  z " transform="scale(0.015625)"/>
      <path id="DejaVuSerif-4d" d="M 353 0  L 353 331  L 947 331  L 947 4331  L 319 4331  L 319 4666  L 1678 4666  L 3316 1344  L 4953 4666  L 6228 4666  L 6228 4331  L 5606 4331  L 5606 331  L 6203 331  L 6203 0  L 4378 0  L 4378 331  L 4972 331  L 4972 3938  L 3372 684  L 2931 684  L 1331 3938  L 1331 331  L 1925 331  L 1925 0  L 353 0  z " transform="scale(0.015625)"/>
      <path id="DejaVuSerif-6f" d="M 1925 219  Q 2388 219 2623 584  Q 2859 950 2859 1663  Q 2859 2375 2623 2739  Q 2388 3103 1925 3103  Q 1463 3103 1227 2739  Q 991 2375 991 1663  Q 991 950 1228 584  Q 1466 219 1925 219  z M 1925 -91  Q 1200 -91 759 389  Q 319 869 319 1663  Q 319 2456 758 2934  Q 1197 3413 1925 3413  Q 2653 3413 3092 2934  Q 3531 2456 3531 1663  Q 3531 869 3092 389  Q 2653 -91 1925 -91  z " transform="scale(0.015625)"/>
      <path id="DejaVuSerif-6c" d="M 1313 331  L 1856 331  L 1856 0  L 184 0  L 184 331  L 738 331  L 738 4531  L 184 4531  L 184 4863  L 1313 4863  L 1313 331  z " transform="scale(0.015625)"/>
      <path id="DejaVuSerif-73" d="M 359 184  L 359 959  L 691 959  Q 703 588 923 403  Q 1144 219 1575 219  Q 1963 219 2166 364  Q 2369 509 2369 788  Q 2369 1006 2220 1140  Q 2072 1275 1594 1428  L 1178 1569  Q 750 1706 558 1912  Q 366 2119 366 2438  Q 366 2894 700 3153  Q 1034 3413 1625 3413  Q 1888 3413 2178 3344  Q 2469 3275 2778 3144  L 2778 2419  L 2447 2419  Q 2434 2741 2221 2922  Q 2009 3103 1644 3103  Q 1281 3103 1095 2975  Q 909 2847 909 2591  Q 909 2381 1050 2254  Q 1191 2128 1613 1997  L 2069 1856  Q 2541 1709 2748 1489  Q 2956 1269 2956 922  Q 2956 450 2595 179  Q 2234 -91 1600 -91  Q 1278 -91 972 -22  Q 666 47 359 184  z " transform="scale(0.015625)"/>
     </defs>
     <use xlink:href="#DejaVuSerif-44"/>
     <use xlink:href="#DejaVuSerif-65" x="80.175781"/>
     <use xlink:href="#DejaVuSerif-65" x="139.355469"/>
     <use xlink:href="#DejaVuSerif-70" x="198.535156"/>
     <use xlink:href="#DejaVuSerif-20" x="262.548828"/>
     <use xlink:href="#DejaVuSerif-46" x="294.335938"/>
     <use xlink:href="#DejaVuSerif-65" x="358.220703"/>
     <use xlink:href="#DejaVuSerif-65" x="417.400391"/>
     <use xlink:href="#DejaVuSerif-64" x="476.580078"/>
     <use xlink:href="#DejaVuSerif-62" x="540.59375"/>
     <use xlink:href="#DejaVuSerif-61" x="604.607422"/>
     <use xlink:href="#DejaVuSerif-63" x="664.226562"/>
     <use xlink:href="#DejaVuSerif-6b" x="720.232422"/>
     <use xlink:href="#DejaVuSerif-20" x="780.828125"/>
     <use xlink:href="#DejaVuSerif-4d" x="812.615234"/>
     <use xlink:href="#DejaVuSerif-6f" x="915.007812"/>
     <use xlink:href="#DejaVuSerif-64" x="975.212891"/>
     <use xlink:href="#DejaVuSerif-65" x="1039.226562"/>
     <use xlink:href="#DejaVuSerif-6c" x="1098.40625"/>
     <use xlink:href="#DejaVuSerif-73" x="1130.388672"/>
    </g>
   </g>
  </g>
 </g>
 <defs>
  <clipPath id="p748ec2bc34">
   <rect x="180" y="60.48" width="1116" height="388.08"/>
  </clipPath>
 </defs>
</svg>